<?xml version="1.0" encoding="UTF-8"?> <svg xmlns="http://www.w3.org/2000/svg" width="284" height="167" viewBox="0 0 284 167" fill="none"> <path d="M261.742 165.232C260.867 166.3 259.291 166.455 258.224 165.58L240.828 151.309C239.761 150.433 239.605 148.858 240.481 147.791C241.357 146.723 242.932 146.568 243.999 147.443L259.462 160.128L272.147 144.665C273.023 143.598 274.598 143.443 275.665 144.318C276.733 145.194 276.888 146.769 276.013 147.837L261.742 165.232ZM7.66987 17.8784C8.93716 17.4677 10.226 17.0622 11.5354 16.6625L12.9949 21.4448C11.7126 21.8361 10.451 22.2331 9.2113 22.6348L7.66987 17.8784ZM19.4207 14.3977C22.0066 13.6999 24.6578 13.0272 27.3682 12.3843L28.5223 17.2493C25.8614 17.8805 23.2597 18.5406 20.7234 19.225L19.4207 14.3977ZM35.37 10.611C38.0083 10.0668 40.6934 9.5525 43.42 9.07184L44.288 13.9959C41.6092 14.4681 38.9715 14.9734 36.38 15.5079L35.37 10.611ZM51.5126 7.76491C54.1903 7.37187 56.9015 7.01289 59.6417 6.69128L60.2246 11.6572C57.5329 11.9731 54.8694 12.3258 52.2387 12.7119L51.5126 7.76491ZM67.8008 5.85449C70.4995 5.6178 73.2214 5.41904 75.9623 5.2612L76.2497 10.2529C73.5596 10.4078 70.8876 10.603 68.2377 10.8354L67.8008 5.85449ZM84.1465 4.91591C86.866 4.84344 89.6001 4.81315 92.3449 4.82787L92.3181 9.8278C89.6278 9.81337 86.9471 9.84306 84.2797 9.91413L84.1465 4.91591ZM100.548 5.00762C103.274 5.11314 106.007 5.26528 108.744 5.46679L108.377 10.4533C105.7 10.2561 103.024 10.1072 100.354 10.0039L100.548 5.00762ZM116.92 6.21786C119.636 6.5178 122.352 6.86899 125.064 7.27413L124.325 12.2192C121.678 11.8238 119.026 11.4808 116.372 11.1876L116.92 6.21786ZM133.166 8.65083C135.856 9.1644 138.539 9.73422 141.211 10.363L140.065 15.23C137.465 14.6179 134.851 14.0628 132.229 13.5621L133.166 8.65083ZM149.179 12.4257C151.818 13.1729 154.442 13.9814 157.049 14.8539L155.462 19.5954C152.932 18.7484 150.382 17.963 147.817 17.2366L149.179 12.4257ZM164.796 17.6601C167.352 18.6587 169.886 19.7233 172.396 20.8568L170.338 25.4135C167.909 24.3165 165.454 23.2852 162.976 22.3173L164.796 17.6601ZM179.821 24.4533C182.258 25.7167 184.667 27.0504 187.044 28.4569L184.498 32.7601C182.203 31.4021 179.876 30.1136 177.52 28.8924L179.821 24.4533ZM194.036 32.8695C196.308 34.3976 198.547 35.9985 200.747 37.6745L197.717 41.6521C195.596 40.0364 193.438 38.4927 191.246 37.0186L194.036 32.8695ZM207.164 42.8718C209.238 44.657 211.273 46.5161 213.265 48.4512L209.781 52.0378C207.862 50.1731 205.901 48.3817 203.902 46.6614L207.164 42.8718ZM219.034 54.4011C220.869 56.4113 222.662 58.4937 224.41 60.6504L220.525 63.7985C218.839 61.7182 217.11 59.7101 215.341 57.7724L219.034 54.4011ZM229.412 67.2018C231.003 69.4139 232.55 71.696 234.05 74.0496L229.833 76.7368C228.383 74.4616 226.889 72.2569 225.353 70.121L229.412 67.2018ZM238.301 81.1376C239.626 83.4883 240.909 85.9037 242.145 88.3853L237.67 90.6153C236.471 88.2093 235.229 85.8693 233.946 83.5937L238.301 81.1376ZM245.644 95.8654C246.732 98.3449 247.776 100.885 248.776 103.487L244.109 105.281C243.136 102.75 242.121 100.281 241.065 97.8734L245.644 95.8654ZM251.544 111.189C252.41 113.771 253.234 116.409 254.016 119.104L249.213 120.497C248.451 117.866 247.647 115.294 246.804 112.779L251.544 111.189ZM256.13 126.962C256.784 129.587 257.399 132.265 257.974 134.994L253.082 136.025C252.519 133.354 251.917 130.736 251.278 128.17L256.13 126.962ZM259.524 143.02C259.991 145.673 260.422 148.373 260.816 151.12L255.866 151.829C255.48 149.134 255.057 146.486 254.6 143.886L259.524 143.02ZM261.856 159.24C262.012 160.616 262.159 162.003 262.297 163.401L257.321 163.892C257.186 162.518 257.041 161.154 256.888 159.803L261.856 159.24Z" fill="black"></path> </svg> 